mtllib steam_boat.mtl
o Hull
v 1.000000 0.500000 -0.500000
v 1.000000 0.500000 0.500000
v 1.000000 -0.125000 0.500000
v 1.000000 -0.125000 -0.500000
v 0.687500 0.500000 -0.500000
v 0.687500 -0.125000 -0.500000
v 0.687500 -0.125000 0.500000
v 0.687500 0.500000 0.500000
v -0.687500 0.500000 -0.500000
v -0.687500 0.500000 0.500000
v -0.687500 -0.125000 0.500000
v -0.687500 -0.125000 -0.500000
v -1.000000 0.500000 -0.500000
v -1.000000 -0.125000 -0.500000
v -1.000000 -0.125000 0.500000
v -1.000000 0.500000 0.500000
v -0.562500 -0.250000 1.187500
v -0.562500 -0.125000 1.187500
v -0.562500 -0.125000 -1.500000
v -0.562500 -0.250000 -1.500000
v 0.562500 -0.125000 -1.500000
v 0.562500 -0.250000 -1.500000
v 0.562500 -0.125000 1.187500
v 0.562500 -0.250000 1.187500
v -0.687500 -0.125000 1.187500
v -0.687500 0.375000 1.187500
v -0.687500 0.375000 -1.500000
v -0.687500 -0.125000 -1.500000
v -0.562500 0.375000 -1.500000
v -0.562500 0.375000 -1.625000
v -0.687500 0.375000 -1.625000
v -0.562500 -0.125000 -1.500000
v -0.562500 0.375000 1.187500
v -0.562500 -0.125000 1.187500
v -0.687500 0.375000 1.312500
v -0.562500 0.375000 1.312500
v -0.562500 -0.125000 1.312500
v -0.687500 -0.125000 1.312500
v 0.562500 0.375000 1.187500
v 0.562500 -0.125000 1.187500
v 0.562500 0.375000 1.312500
v 0.687500 0.375000 1.312500
v 0.687500 0.375000 1.187500
v 0.562500 -0.125000 1.312500
v 0.687500 -0.125000 1.187500
v 0.687500 -0.125000 1.312500
v 0.687500 0.375000 -1.500000
v 0.562500 0.375000 -1.500000
v 0.687500 0.375000 -1.625000
v 0.562500 0.375000 -1.625000
v 0.562500 -0.125000 -1.500000
v 0.687500 -0.125000 -1.500000
v 0.562500 -0.125000 -1.625000
v 0.687500 -0.125000 -1.625000
v -0.687500 -0.125000 -1.625000
v -0.562500 -0.125000 -1.625000
v 0.500000 0.875000 -0.500000
v -0.500000 0.875000 -0.500000
v -0.500000 0.875000 1.062500
v 0.500000 0.875000 1.062500
v -0.500000 -0.125000 1.062500
v 0.500000 -0.125000 1.062500
v 0.500000 -0.125000 -0.500000
v -0.500000 -0.125000 -0.500000
v 0.125000 1.625000 0.500000
v -0.125000 1.625000 0.500000
v -0.125000 1.625000 0.750000
v 0.125000 1.625000 0.750000
v 0.125000 0.876000 0.750000
v 0.125000 0.876000 0.500000
v -0.125000 0.876000 0.500000
v -0.125000 0.876000 0.750000
v -0.500000 0.250000 -0.187500
v -0.562500 0.250000 -0.187500
v -0.562500 0.250000 0.187500
v -0.500000 0.250000 0.187500
v -0.562500 -0.125000 0.187500
v -0.500000 -0.125000 0.187500
v 0.562500 0.250000 0.187500
v 0.500000 0.250000 0.187500
v 0.500000 -0.125000 0.187500
v 0.562500 -0.125000 0.187500
v 0.562500 0.250000 -0.187500
v 0.500000 0.250000 -0.187500
v 0.562500 -0.125000 -0.187500
v 0.500000 -0.125000 -0.187500
v -0.500000 -0.125000 -0.187500
v -0.562500 -0.125000 -0.187500
v 0.187500 1.187500 -0.375000
v -0.187500 1.187500 -0.375000
v -0.187500 1.187500 0.000000
v 0.187500 1.187500 0.000000
v 0.187500 0.875000 0.000000
v 0.187500 0.875000 -0.375000
v -0.187500 0.875000 -0.375000
v -0.187500 0.875000 0.000000
v 0.125000 0.875000 0.625000
vt 0.000000 0.421900
vt 0.250000 0.421900
vt 0.250000 0.265600
vt -0.000000 0.265600
vt 0.250000 0.421900
vt 0.250000 0.265600
vt 0.000000 0.265600
vt -0.000000 0.421900
vt 0.328100 0.265600
vt 0.328100 0.421900
vt -0.000000 0.171900
vt 0.250000 0.171900
vt 0.328100 0.421900
vt 0.328100 0.265600
vt -0.000000 0.500000
vt 0.250000 0.500000
vt -0.000000 0.421900
vt 0.250000 0.421900
vt 0.250000 0.265600
vt 0.000000 0.265600
vt 0.250000 0.421900
vt 0.250000 0.265600
vt -0.000000 0.265600
vt 0.000000 0.421900
vt 0.328100 0.265600
vt 0.328100 0.421900
vt 0.000000 0.171900
vt 0.250000 0.171900
vt 0.328100 0.421900
vt 0.328100 0.265600
vt 0.250000 0.500000
vt 0.000000 0.500000
vt 0.656200 0.281200
vt 0.687500 0.281200
vt 0.687500 0.968800
vt 0.656200 0.968800
vt 0.968800 0.250000
vt 0.968800 0.281200
vt 0.687500 0.281200
vt 0.687500 0.250000
vt 1.000000 0.968800
vt 0.968800 0.968800
vt 0.968800 0.281200
vt 1.000000 0.281200
vt 0.687500 1.000000
vt 0.687500 0.968800
vt 0.968800 0.968800
vt 0.968800 1.000000
vt 0.687500 0.281200
vt 0.968800 0.281200
vt 0.968800 0.968800
vt 0.687500 0.968800
vt 0.968800 0.125000
vt 0.968800 0.250000
vt 0.359400 0.250000
vt 0.359400 0.125000
vt 0.656200 0.968800
vt 0.687500 0.968800
vt 0.687500 1.000000
vt 0.656200 1.000000
vt 0.968800 0.125000
vt 0.968800 0.250000
vt 0.359400 0.250000
vt 0.359400 0.125000
vt 0.687500 0.281200
vt 0.656200 0.281200
vt 0.656200 0.250000
vt 0.687500 0.250000
vt 0.656200 0.281200
vt 0.687500 0.281200
vt 0.687500 0.968800
vt 0.656200 0.968800
vt 0.359400 0.000000
vt 0.359400 0.125000
vt 0.328100 0.125000
vt 0.328100 0.000000
vt 0.359400 0.000000
vt 0.656200 0.000000
vt 0.656200 0.125000
vt 1.000000 0.125000
vt 1.000000 0.250000
vt 0.687500 1.000000
vt 0.656200 1.000000
vt 0.968800 0.281200
vt 0.968800 0.250000
vt 1.000000 0.250000
vt 1.000000 0.281200
vt 0.968800 0.968800
vt 0.968800 1.000000
vt 0.656200 0.000000
vt 0.656200 0.125000
vt 0.359400 0.125000
vt 0.359400 0.250000
vt 0.328100 0.250000
vt 0.328100 0.125000
vt 1.000000 0.968800
vt 0.968800 0.968800
vt 1.000000 0.968800
vt 1.000000 1.000000
vt 0.687500 0.000000
vt 0.687500 0.125000
vt 1.000000 1.000000
vt 0.968800 1.000000
vt 0.968800 0.125000
vt 0.968800 0.250000
vt 0.359400 0.250000
vt 0.359400 0.125000
vt 0.968800 0.281200
vt 1.000000 0.281200
vt 0.968800 0.125000
vt 0.968800 0.250000
vt 0.359400 0.000000
vt 0.359400 0.125000
vt 0.328100 0.125000
vt 0.328100 0.000000
vt 0.968800 0.250000
vt 1.000000 0.250000
vt 1.000000 0.125000
vt 1.000000 0.250000
vt 0.687500 0.000000
vt 0.687500 0.125000
vt 0.656200 0.125000
vt 0.656200 0.000000
vt 0.328100 0.250000
vt 0.328100 0.125000
vt 0.656200 0.250000
vt 0.687500 0.250000
vt 0.359400 0.125000
vt 0.359400 0.000000
vt 0.656200 0.000000
vt 0.656200 0.125000
vt 0.390600 1.000000
vt 0.390600 0.750000
vt 0.000000 0.750000
vt -0.000000 1.000000
vt 0.390600 1.000000
vt 0.640600 1.000000
vt 0.640600 0.750000
vt 0.390600 0.750000
vt 0.640600 0.750000
vt 0.640600 0.500000
vt 0.390600 0.500000
vt 0.000000 0.750000
vt 0.000000 0.500000
vt 0.390600 0.500000
vt 0.390600 0.750000
vt 0.000000 0.500000
vt 0.390600 0.500000
vt 0.328100 0.500000
vt 0.328100 0.437500
vt 0.390600 0.437500
vt 0.390600 0.437500
vt 0.328100 0.437500
vt 0.328100 0.250000
vt 0.390600 0.250000
vt 0.390600 0.437500
vt 0.328100 0.437500
vt 0.328100 0.250000
vt 0.390600 0.250000
vt 0.328100 0.250000
vt 0.390600 0.250000
vt 0.390600 0.437500
vt 0.328100 0.437500
vt 0.328100 0.250000
vt 0.390600 0.250000
vt 0.500000 0.250000
vt 0.484400 0.250000
vt 0.484400 0.343800
vt 0.500000 0.343800
vt 0.500000 0.250000
vt 0.484400 0.250000
vt 0.484400 0.343800
vt 0.500000 0.343800
vt 0.500000 0.250000
vt 0.484400 0.250000
vt 0.484400 0.343800
vt 0.500000 0.343800
vt 0.500000 0.250000
vt 0.484400 0.250000
vt 0.484400 0.343800
vt 0.500000 0.343800
vt 0.500000 0.250000
vt 0.484400 0.250000
vt 0.484400 0.343800
vt 0.500000 0.343800
vt 0.500000 0.250000
vt 0.484400 0.250000
vt 0.484400 0.343800
vt 0.500000 0.343800
vt 0.484400 0.500000
vt 0.390600 0.500000
vt 0.390600 0.406200
vt 0.484400 0.406200
vt 0.546900 0.406200
vt 0.546900 0.500000
vt 0.484400 0.500000
vt 0.484400 0.406200
vt 0.546900 0.406200
vt 0.546900 0.500000
vt 0.484400 0.500000
vt 0.484400 0.406200
vt 0.546900 0.406200
vt 0.546900 0.500000
vt 0.484400 0.500000
vt 0.484400 0.406200
vt 0.546900 0.406200
vt 0.546900 0.500000
vn 1.0000 0.0000 0.0000
vn -1.0000 -0.0000 0.0000
vn 0.0000 0.0000 -1.0000
vn 0.0000 -1.0000 -0.0000
vn 0.0000 -0.0000 1.0000
vn 0.0000 1.0000 0.0000
usemtl boat
s 1
f 1/1/1 2/2/1 3/3/1 4/4/1
f 5/5/2 6/6/2 7/7/2 8/8/2
f 4/9/3 6/6/3 5/5/3 1/10/3
f 3/11/4 7/7/4 6/6/4 4/12/4
f 2/2/5 8/13/5 7/14/5 3/3/5
f 1/1/6 5/15/6 8/16/6 2/2/6
f 9/17/1 10/18/1 11/19/1 12/20/1
f 13/21/2 14/22/2 15/23/2 16/24/2
f 12/25/3 14/22/3 13/21/3 9/26/3
f 11/27/4 15/23/4 14/22/4 12/28/4
f 10/18/5 16/29/5 15/30/5 11/19/5
f 9/31/6 13/21/6 16/24/6 10/32/6
f 17/33/2 18/34/2 19/35/2 20/36/2
f 20/37/3 19/38/3 21/39/3 22/40/3
f 22/41/1 21/42/1 23/43/1 24/44/1
f 24/45/5 23/46/5 18/47/5 17/48/5
f 20/49/4 22/50/4 24/51/4 17/52/4
f 21/39/6 19/38/6 18/47/6 23/46/6
f 25/53/2 26/54/2 27/55/2 28/56/2
f 27/57/6 29/58/6 30/59/6 31/60/6
f 32/61/1 29/62/1 33/63/1 34/64/1
f 33/65/6 26/66/6 35/67/6 36/68/6
f 28/69/4 32/70/4 34/71/4 25/72/4
f 29/58/6 27/57/6 26/66/6 33/65/6
f 37/73/5 36/74/5 35/75/5 38/76/5
f 34/64/3 33/77/3 39/78/3 40/79/3
f 26/54/2 25/53/2 38/80/2 35/81/2
f 25/72/4 34/71/4 37/82/4 38/83/4
f 39/84/6 41/85/6 42/86/6 43/87/6
f 37/82/4 34/71/4 40/88/4 44/89/4
f 33/65/6 36/68/6 41/85/6 39/84/6
f 36/74/5 37/73/5 44/90/5 41/91/5
f 45/92/1 43/93/1 42/94/1 46/95/1
f 39/84/6 43/87/6 47/96/6 48/97/6
f 44/89/4 40/88/4 45/98/4 46/99/4
f 41/91/5 44/90/5 46/100/5 42/101/5
f 48/97/6 47/96/6 49/102/6 50/103/6
f 40/104/2 39/105/2 48/106/2 51/107/2
f 45/98/4 40/88/4 51/108/4 52/109/4
f 43/93/1 45/92/1 52/110/1 47/111/1
f 53/112/3 50/113/3 49/114/3 54/115/3
f 52/109/4 51/108/4 53/116/4 54/117/4
f 47/111/1 52/110/1 54/118/1 49/119/1
f 55/120/3 31/121/3 30/122/3 56/123/3
f 28/56/2 27/55/2 31/124/2 55/125/2
f 56/123/3 30/122/3 50/113/3 53/112/3
f 32/70/4 28/69/4 55/126/4 56/127/4
f 30/59/6 29/58/6 48/97/6 50/103/6
f 29/128/5 32/129/5 51/130/5 48/131/5
f 32/70/4 56/127/4 53/116/4 51/108/4
f 57/132/6 58/133/6 59/134/6 60/135/6
f 59/136/5 61/137/5 62/138/5 60/139/5
f 57/140/3 63/141/3 64/142/3 58/133/3
f 60/143/1 62/144/1 63/145/1 57/146/1
f 58/133/2 64/142/2 61/147/2 59/134/2
f 65/148/6 66/149/6 67/150/6 68/151/6
f 65/152/1 68/153/1 69/154/1 70/155/1
f 67/156/2 66/157/2 71/158/2 72/159/2
f 68/151/5 67/150/5 72/160/5 69/161/5
f 66/162/3 65/163/3 70/164/3 71/165/3
f 73/166/6 74/167/6 75/168/6 76/169/6
f 76/170/5 75/171/5 77/172/5 78/173/5
f 79/174/5 80/175/5 81/176/5 82/177/5
f 83/178/6 84/179/6 80/180/6 79/181/6
f 85/182/3 86/183/3 84/184/3 83/185/3
f 87/186/3 88/187/3 74/188/3 73/189/3
f 89/190/6 90/191/6 91/192/6 92/193/6
f 89/190/1 92/193/1 93/194/1 94/195/1
f 91/196/2 90/197/2 95/198/2 96/199/2
f 92/200/5 91/201/5 96/202/5 93/203/5
f 90/204/3 89/205/3 94/206/3 95/207/3
l 70 97
